/* XPM */
static char *d2d56cea3bfb4675efde9d2fee1685f4A0HTrGALWYDMoGx3[] = {
/* columns rows colors chars-per-pixel */
"28 48 239 2 ",
"   c None",
".  c #050102",
"X  c #0B0202",
"o  c #01030B",
"O  c #0B020B",
"+  c #080909",
"@  c #150509",
"#  c #051603",
"$  c #181504",
"%  c #0D0019",
"&  c #0A0216",
"*  c #110116",
"=  c #16061B",
"-  c #071619",
";  c #191013",
":  c #210716",
">  c #2F130E",
",  c #262A06",
"<  c #2B251D",
"1  c #160626",
"2  c #1A1225",
"3  c #030539",
"4  c #160435",
"5  c #121130",
"6  c #220728",
"7  c #271B27",
"8  c #361928",
"9  c #2D153A",
"0  c #301F33",
"q  c #2F0C2A",
"w  c #36293B",
"e  c #283839",
"r  c #2E2A33",
"t  c #470804",
"y  c #453514",
"u  c #56300D",
"i  c #6C3600",
"p  c #401236",
"a  c #473B27",
"s  c #42363B",
"d  c #41282B",
"f  c #6F2A31",
"g  c #3D4A1C",
"h  c #2C433B",
"j  c #4C4302",
"k  c #474129",
"l  c #474B3A",
"z  c #5A4F37",
"x  c #725E3B",
"c  c #74712E",
"v  c #17104D",
"b  c #23144A",
"n  c #31104F",
"m  c #183941",
"M  c #00294C",
"N  c #272B4D",
"B  c #273C42",
"V  c #353647",
"C  c #362559",
"Z  c #382E4B",
"A  c #0A0F6F",
"S  c #290B6F",
"D  c #113273",
"F  c #3B3464",
"G  c #242174",
"H  c #382B73",
"J  c #36337A",
"K  c #3A2767",
"L  c #441B59",
"P  c #482949",
"I  c #533F48",
"U  c #56375B",
"Y  c #4A3250",
"T  c #632242",
"R  c #4F0A6B",
"E  c #4A2A63",
"W  c #552B69",
"Q  c #543470",
"!  c #67397A",
"~  c #693273",
"^  c #761D71",
"/  c #1C444E",
"(  c #284B46",
")  c #38514C",
"_  c #0F4B6F",
"`  c #1D636F",
"'  c #54494C",
"]  c #534851",
"[  c #455758",
"{  c #575959",
"}  c #474955",
"|  c #694C53",
" . c #785A58",
".. c #6C5055",
"X. c #6C6555",
"o. c #574866",
"O. c #494A79",
"+. c #624268",
"@. c #635869",
"#. c #65477B",
"$. c #744D79",
"%. c #775168",
"&. c #69646A",
"*. c #7B6B79",
"=. c #756B79",
"-. c #4D6651",
";. c #81220C",
":. c #8B343D",
">. c #E3291C",
",. c #9E6A16",
"<. c #9B4B23",
"1. c #FE4818",
"2. c #CD5B39",
"3. c #877655",
"4. c #836E7F",
"5. c #8E4C6A",
"6. c #EE6640",
"7. c #74813B",
"8. c #5C9A73",
"9. c #7AA77C",
"0. c #9B8713",
"q. c #AF8901",
"w. c #88802F",
"e. c #B28630",
"r. c #B9A93C",
"t. c #CFAF0B",
"y. c #EBB700",
"u. c #D1AB33",
"i. c #D7A031",
"p. c #FAC803",
"a. c #FFD200",
"s. c #E7C512",
"d. c #F0EA07",
"f. c #FFCE31",
"g. c #8F886D",
"h. c #8AA37B",
"j. c #CF995D",
"k. c #F9D044",
"l. c #17108C",
"z. c #2E168F",
"x. c #1A398D",
"c. c #373492",
"v. c #1B10AA",
"b. c #4D2F92",
"n. c #693D85",
"m. c #75399D",
"M. c #6C2E84",
"N. c #742AA5",
"B. c #174088",
"V. c #2B4990",
"C. c #2A6B92",
"Z. c #2747A9",
"A. c #3150B1",
"S. c #3575BA",
"D. c #266EB1",
"F. c #1A72A5",
"G. c #75468A",
"H. c #765489",
"J. c #644893",
"K. c #74489A",
"L. c #765B95",
"P. c #6B4A81",
"I. c #71688A",
"U. c #5C5EB1",
"Y. c #7D54A3",
"T. c #746FA1",
"R. c #515D8D",
"E. c #065CC3",
"W. c #377AC8",
"Q. c #2D74CB",
"!. c #3A77E1",
"~. c #536AC8",
"^. c #855194",
"/. c #93799D",
"(. c #8C6A92",
"). c #AD6D91",
"_. c #844FB4",
"`. c #8C65A2",
"'. c #9667AA",
"]. c #987AA7",
"[. c #9876B7",
"{. c #8F6FB8",
"}. c #AB78BB",
"|. c #A476AD",
" X c #9E7DDA",
".X c #B578C8",
"XX c #2E88B7",
"oX c #3099BD",
"OX c #0C8892",
"+X c #5F858A",
"@X c #6A8483",
"#X c #5BAFB1",
"$X c #368BCE",
"%X c #32B4D9",
"&X c #2FAFD6",
"*X c #258DEC",
"=X c #34AFF3",
"-X c #5396D3",
";X c #4FB0CD",
":X c #518CE6",
">X c #48A3F8",
",X c #4AB7E9",
"<X c #23C6E9",
"1X c #45C0FC",
"2X c #89978C",
"3X c #A28C98",
"4X c #9F83AC",
"5X c #A787B5",
"6X c #B18CBA",
"7X c #AB95B7",
"8X c #AE8FB5",
"9X c #9EB19E",
"0X c #C39B9C",
"qX c #DCB18E",
"wX c #B7C7BA",
"eX c #CFC8B4",
"rX c #979CC2",
"tX c #AF94C8",
"yX c #AC8FD9",
"uX c #BA8CD3",
"iX c #B48DC7",
"pX c #ACAFCE",
"aX c #AC8FF0",
"sX c #C597D8",
"dX c #CC90CF",
"fX c #CAA2DA",
"gX c #C792F0",
"hX c #D2A9E2",
"jX c #D6B2E8",
"kX c #D4A3EC",
"lX c #ECB0F2",
"zX c #C4C3C1",
"xX c #CAC4F3",
"cX c #E6CEF2",
"vX c #F9F8E3",
"bX c #F5E5FA",
"nX c #FDF5FF",
"mX c #E9E9F3",
"MX c #CFEFFF",
/* pixels */
"                                                        ",
"                              + r                       ",
"                            6 4X=                       ",
"                        vX& yX4X7                 &.=   ",
"                        6 6XK.iX$               &.C 1   ",
"                      o p.q.5.].,             &.1 L.2   ",
"                      q <.y.k.'.C           &.1 {.%     ",
"                    O 6X_.~ ! 4X$         *.= ^.n.7     ",
"                    = 7X#.J._.I.l       I.9 #.E         ",
"                    0 ].! K.iX@       &.: Q b.H.        ",
"                  = 6XG.n.Q 7X@     *.9 M.L H.O         ",
"                  * ].G.P.L 4X7     % +.n P.Z 2         ",
"                  7 8X~ n.E 6X*   @.1 H.E o.2           ",
"                  7 /.L W W 5X6 * 1 n L 9 Y             ",
"                    7X(.b n sX}.4X4X].G.1 P             ",
"                    o.fX`.`.'.`.hXuXsXsX/.% @.          ",
"                    * H.`.{.~ '.iXtXdXsXiXH.w           ",
"                    6 U #.W .XlXfXdX}.`.kXjX9 &.        ",
"                    o ^ J.K.gX4 N cXgX5.[.kX@.&.        ",
"                      m E T fXu r.1 %.aX! jX* &.        ",
"                      . K.J.W yX3.r.$ 8 |.%.s           ",
"                  ' - Y # o K ^.iX%.M.+.lXY 4.          ",
"              -.# p C XX:XeX@ K.L.aX).aXsXsX] *.        ",
"            h 9X) / -X%XJ =.eX# - `.kXdX XL.1 =.        ",
"            0 Y bX#XoXV.U h #Xe 8 > dXdX(.* &.          ",
"          l L dX1 xXI.V ( &X*X! 6.i . 1 . {             ",
"        Q ,.d.$ mXr wXnX;X>XN ) >.2.8.0X% Z &.          ",
"      s [ cX$     = Q ! mXmX| ) -.T.pX* E P.q  .        ",
"    +.t lX+ 9X    < F P.dXaXnXnXmX9.z cX. u e.i X.      ",
"  ' u s.p.j xX    = z._  X6XQ 4.@ -.      8Xt j.j       ",
"  = qXi.L 2X      d v Z.[ _ B.G k bX      g.@ m.N.'.%   ",
"  o.kX.XfXX       9 c.E.f...h 3Xt.t         V I ~ ^.*   ",
"  P ] sX|.:     + 3 oX,X!.s.-.MXzXs.- M       o E C 9   ",
"    6 E I.]     7 A.&X>XB.p.F g.rXu f.l.# ]   { [ e     ",
"      ] )     < A $X%X$XZ.e.c e o.2X0.+X1XD.B           ",
"              d x.=X-XZ.Z.z.a.b.vXpX..y.v.,XOXB         ",
"              2 $X=XW.Z.D C 3.7.tX@.l 0.} Z.1Xm (.      ",
"            ( 3 D.=XD.W.S.S L a.b :. .c y.A D.O.C       ",
"            ` J S D.Q.W.D.Q.z.p.' 1.<. .t.A A.1XM g.    ",
"          e C.V.R c.Z.x.XXQ.W d.J x f i.$.$XQ.W.3 2X    ",
"          ) C.:XA l.l.XXA.z.@ y i.N s.P z.V.A U.5 @X    ",
"          e D >X%XD.~.&XXXX     i u.8 l.C.!.,X_ o.      ",
"              B.&X<X,XW.2         < + 4 J O.o -.        ",
"              5 {.T.4 &           X s +.b N             ",
"              , g.0               X z 8 V               ",
"            X.Y U @               $ 3.>                 ",
"            , q.t.>             O k y a + X.            ",
"          ' q (.@               . a z < k ; @.          "
};
