/* XPM */
static char *_cc678dd27244b03c72ac16e6c9e71ccqDt0VxhmtQpwgJEZ[] = {
/* columns rows colors chars-per-pixel */
"28 48 227 2 ",
"   c None",
".  c #090607",
"X  c #15090A",
"o  c #0E1109",
"O  c #0A0617",
"+  c #140818",
"@  c #19151A",
"#  c #12160A",
"$  c #26121B",
"%  c #000D24",
"&  c #140922",
"*  c #1C1D25",
"=  c #171825",
"-  c #241428",
";  c #2B1B36",
":  c #3C1938",
">  c #1A283D",
",  c #0B262F",
"<  c #3A2B2E",
"1  c #2B2438",
"2  c #4C311A",
"3  c #432E33",
"4  c #502A30",
"5  c #4A1D27",
"6  c #7A5731",
"7  c #2D1946",
"8  c #391C45",
"9  c #3B1C55",
"0  c #3A2747",
"q  c #3B364B",
"w  c #3D2A55",
"e  c #3C3A56",
"r  c #282946",
"t  c #471E52",
"y  c #441B41",
"u  c #46284A",
"i  c #463549",
"p  c #5A324C",
"a  c #492659",
"s  c #483954",
"d  c #55395B",
"f  c #572C42",
"g  c #7C3F5E",
"h  c #4B2965",
"j  c #542C6A",
"k  c #553569",
"l  c #5A2E73",
"z  c #5B3576",
"x  c #65397A",
"c  c #6C3B6F",
"v  c #3B4758",
"b  c #304351",
"n  c #1C536D",
"m  c #2C4E77",
"M  c #48485C",
"N  c #515053",
"B  c #5C4668",
"V  c #515369",
"C  c #62496B",
"Z  c #664478",
"A  c #745878",
"S  c #745071",
"D  c #676974",
"F  c #777875",
"G  c #71686E",
"H  c #8B1C33",
"J  c #F33735",
"K  c #EF2F3B",
"L  c #9D5E03",
"P  c #AD5B1C",
"I  c #995E37",
"U  c #A45927",
"Y  c #82703F",
"T  c #A56635",
"R  c #B66A1B",
"E  c #E73A44",
"W  c #F93645",
"Q  c #8D4C4F",
"!  c #865569",
"~  c #986B76",
"^  c #B66061",
"/  c #9E6551",
"(  c #E94442",
")  c #F1454A",
"_  c #7B8274",
"`  c #BBA13E",
"'  c #AD9235",
"]  c #DBB82B",
"[  c #D2AC2E",
"{  c #E3B836",
"}  c #FBE31F",
"|  c #EACA39",
" . c #F5DB3C",
".. c #FBDD3D",
"X. c #F4D738",
"o. c #EED72F",
"O. c #FAE333",
"+. c #FBE33B",
"@. c #F7E73B",
"#. c #F9E72F",
"$. c #AA9349",
"%. c #BB9274",
"&. c #9A894B",
"*. c #C59658",
"=. c #D6B049",
"-. c #E1B747",
";. c #C99E6A",
":. c #CF9F7C",
">. c #D9B87C",
",. c #CDA165",
"<. c #FCDD43",
"1. c #FDDD4B",
"2. c #EED159",
"3. c #FCE343",
"4. c #FBE349",
"5. c #F8E643",
"6. c #F1D165",
"7. c #E9C96A",
"8. c #693D86",
"9. c #326185",
"0. c #5E4682",
"q. c #6C4484",
"w. c #68448A",
"e. c #73488C",
"r. c #7C5A8E",
"t. c #75568C",
"y. c #7A4D97",
"u. c #7D5694",
"i. c #4F6B90",
"p. c #7C7A86",
"a. c #756E93",
"s. c #7D59A2",
"d. c #4E7DBC",
"f. c #845A95",
"g. c #875A9C",
"h. c #86638C",
"j. c #866497",
"k. c #966795",
"l. c #92758E",
"z. c #A47787",
"x. c #8A5EA8",
"c. c #8C68A6",
"v. c #9669A8",
"b. c #9A79A6",
"n. c #996BB6",
"m. c #9B74B6",
"M. c #8371A0",
"N. c #A777AB",
"B. c #A678B7",
"V. c #B06FB8",
"C. c #AA79C5",
"Z. c #986CC3",
"A. c #538EBC",
"S. c #36A3D8",
"D. c #37A7E8",
"F. c #3CBAEE",
"G. c #489ACC",
"H. c #4589C2",
"J. c #6BB1DB",
"K. c #52A7C9",
"L. c #8A8992",
"P. c #949095",
"I. c #B68787",
"U. c #A68991",
"Y. c #9E95B8",
"T. c #9C84B1",
"R. c #B686A7",
"E. c #A782B9",
"W. c #B98AB9",
"Q. c #B698B8",
"!. c #A887B1",
"~. c #99A1A7",
"^. c #B0A6B4",
"/. c #C79799",
"(. c #DFBE87",
"). c #CFAD95",
"_. c #C08BA3",
"`. c #DB98AB",
"'. c #C699BC",
"]. c #D796AB",
"[. c #E29BB2",
"{. c #DAA8B3",
"}. c #F397A1",
"|. c #AC82C3",
" X c #AA86C8",
".X c #B484C5",
"XX c #BC8DCC",
"oX c #B68AC6",
"OX c #BD92CD",
"+X c #BA95C3",
"@X c #BD8ED2",
"#X c #BC92D3",
"$X c #B897DD",
"%X c #AF94C5",
"&X c #B5A3CB",
"*X c #C293CC",
"=X c #C79AC6",
"-X c #C28DD3",
";X c #C294D2",
":X c #CB95D5",
">X c #C49CD4",
",X c #C395DA",
"<X c #CA9BDB",
"1X c #C897D9",
"2X c #D09DC0",
"3X c #D8AAC9",
"4X c #CDB3CE",
"5X c #CBA4DB",
"6X c #C6A8D7",
"7X c #CABAD7",
"8X c #D6B2D4",
"9X c #F3A8C3",
"0X c #F5B0C6",
"qX c #C390EA",
"wX c #D8B9E3",
"eX c #D1A6E4",
"rX c #BCC9CC",
"tX c #86C3E4",
"yX c #D4D7D8",
"uX c #D1CCD0",
"iX c #DCC8E5",
"pX c #D3D9E7",
"aX c #E6D6E8",
"sX c #EAE7E9",
"dX c #EAE8F3",
"fX c #EDF5F9",
"gX c #D5EBF3",
/* pixels */
"                                                        ",
"                                                        ",
"                                                        ",
"                                                        ",
"                                                        ",
"    - a u u & - 8 a - 3 3 < 3 5 3 4 $ $ u 7 y 0 u 8     ",
"    A eX<X5X|.Z 5X*Xf {.9X0X9X9X9X{.! OXeXf.;X5X<XeXO   ",
"    C ,X@XXXXXl C.B.: z.[.[.`.`.[.z.a eX1Xx ;X#X@XOX+   ",
"    C ;X;XOX.Xx XX|.a p ].9X9X9X`.p k >X1Xk n.,XXXE.O   ",
"    B 1XXX;XB.k oXm.w.k u i i i ; a j.1X<Xk y..X-Xr.+   ",
"    0 OXB.n.e.x *XC.8.c.E.oXoXW.c.y.e.oX:Xz e.g.x.Z O   ",
"    0 .Xq.q.x v.;XB.x.OX;X1X-X1X#XB.g.g.>Xj j z q.x +   ",
"    8 8.x z l XXoXv.*X*XOX;X;X#X>X;X;X.Xv.oXB.z z 8..   ",
"    ; q.j x g.OXN.XX*X;X;X;X;X*X;XOXXXOXB.-XE.t.h 8.X   ",
"    ; h j.OX#XOXOX;X>XXXOX*X;X#X-XXXv.XX;X;XwXoXj z X   ",
"    C g.N.OX<X#X1XOXm.B.<XXX;X;XOXf.oX-X*XOXiX5Xf.Z @   ",
"    B <X*XXXn.,X-X-X-Xm.B.*X;XOXf.v.@X-X;XiX8X7X>XXXX   ",
"    u #XC.f.C.2X=X*X2XB.g.1XW.#Xe.V.'.*X>X{.wXE.>XoXX   ",
"    0 x.j k.;.O.O.+.O.[ z.C.1Xv.k.[ #.O.+.o.;.A u.e.+   ",
"    ; q.c %.| ..<.4...O.[ .X#XW.=.<.<.1. . .| %.k 8..   ",
"    = s c.=...<...4.<.+.X.%.$X;.| <.4.4.<.3.+.-.v.h &   ",
"    X i 3X@...@.@.| 5.<.<.7.#X(.O...#. .5...1.} +X0 O   ",
"    & q 3X1.4.5.$.6 5...+.(.-X(.+.1.@.Y &.+.+.+.=Xi +   ",
"    & q 8X2.5.4.` ' 4...5.(.-X>.5.+.4.$.$.+.@...<Xi #   ",
"    @ 1 R.@.<. .5.4.+.3.o.7.-X>.O.3.@.@.5.3.4.} !.1 .   ",
"    * 1 h.-.3.3.3.3.4.1.o.;.qX:.| 3.+.+. .3.3.] r.7 .   ",
"    = N h._.] +.O.O...X.,.'.@XoX*.<.3...4.+.{ /.q r o   ",
"    b yXG e./.6.6.2.6.%.k.C.E.|.n.*.7.2.7.=.R.c.N M o   ",
"    l.dXQ.C E.R.=X2XW.N.v.x.g.f.n.b.W.'.'.R.v.u yXL.O   ",
"    F aXZ.S 5 w.V.&XN.n.q.f.|.u.f.V.B.$XC.d 3 ~ aXdXo   ",
"    _ T.t f T 0 k.OX-X*X,Xv.x v.OXOX:X'.m.w T ~ !.iXo   ",
"    F w.j 8 U d C <X+X-X;X@X;X;X;X#X*X:XS c P : z 4X.   ",
"    F u.t l I 6 ; @X+X;X:X*X*XXX:X*X,X X< Q U t 9 Q.O   ",
"    p.r.e.w.g L 0 : c %XoXb.d b.%XN.t.e 8 R f j h ^.o   ",
"    F c.Z w.8.P 2 j ~ q i D ~.F N i l.u 4 U w.8.0.^.X   ",
"    F &Xz 8.c ! 2 l ~.P.L.U.Q z.L.P.^.t 2 S 8.x 8.uX.   ",
"    N uXN.n.c.x j u i S H W ( E H S s a h 8.c.n.Q.sXX   ",
"    1 uX7X@X:XT.s.3 r./.E ) J ( J U.b.u g..X,X&XdXP..   ",
"    @ L.aX7XOXXXOXB u.{.J E W ( K /.b.C !.*X,XuXfXa.%   ",
"    > A.tXgXaX5XQ.b.A a.{.( ( ) ].M.A t.<X8XaXgXJ.S.%   ",
"    m D.S.J.rXsXsX%Xd +XpX^ K ^ yXT.B R.iXuXY.K.D.G.O   ",
"    9.D.D.G.i.rXfXdXN T.Y.I.:.z.Y.j.V sXuXA.M 9.D.S.%   ",
"    n D.G.m v q D V N 8 r.c.V.v.h.0 e D N u v e H.S.%   ",
"    n F.d.V M M q M M q 1 S Z C q q M v N N v M i.K.%   ",
"    , n r * @ * * * = * $ @ @ @ - @ * * * * * = > b O   ",
"                                                        ",
"                                                        ",
"                                                        "
};
