/* XPM */
static char *a3f6bd55318f4bc1f19c26e703ac5497dvV65GdwDUuVOO0U[] = {
/* columns rows colors chars-per-pixel */
"28 48 45 1 ",
"  c #3C1E16",
". c #46231B",
"X c #4A271F",
"o c #4A281D",
"O c #4A2720",
"+ c #4A2820",
"@ c #562B23",
"# c #592C24",
"$ c #5D3027",
"% c #602F25",
"& c #613125",
"* c #6C3327",
"= c #67352E",
"- c #6D342A",
"; c #73362A",
": c #72392D",
"> c #7D3B2C",
", c #833C2B",
"< c #8A3E2C",
"1 c #903F2C",
"2 c #8D402C",
"3 c #95432D",
"4 c #9A442D",
"5 c #9F482E",
"6 c #834031",
"7 c #884132",
"8 c #944530",
"9 c #9C4631",
"0 c #9D4833",
"q c #9F4A38",
"w c #A2472D",
"e c #A5482E",
"r c #AE4C2E",
"t c #B14C2D",
"y c #A54B32",
"u c #AD4D30",
"i c #A74D38",
"p c #A84E39",
"a c #B14C30",
"s c #B45135",
"d c #BD5537",
"f c #B3513A",
"g c #BE5538",
"h c #C15537",
"j c #C15538",
/* pixels */
"jfiipghhhhhhhhhhhhhhfpiq.sgj",
",1449rte,,4ttt4,,,,re342+>,,",
"4wrr<,,<44<,,,<4334<<<,>O343",
",,,2444144ett442<,e48842Oe4,",
"3,,21933444<343,4r234332X>,,",
"2342<,,,4rr41<e42,3,,>24X384",
"w33w4e443,<4re<,434rrre,O>,2",
"3,,<42,,<e<,3444,,,44455X433",
"432w433,,w4<344<,,,4441>X<19",
"t;=e44<wrrrrtttrurrtrtt5O,3<",
"#@@@@#@@@@@@@@@@@@@@@@@@.@@@",
"#@#@@@@@@@.@@@@@##@@@@@@@###",
"pippppppip%,ppiippppuipupipi",
"44144e4w44#>44wtttttttr4444r",
"34444e4134#>439te<,,,,44443<",
",<e3<,,,,e%<5,<<<14444wrrre4",
"4444334432#<te44444143,,,,,1",
"4>>,,,>,,2#<te<,,,,,,<rrttt1",
"<,,>,4te<4%;<,<73,,11,,4artr",
"rrrrrrtrrr&,uuw03errrtt<--1t",
"r4,,3<,,,,$>>,2<<<,,<tr43344",
",<ttttttrt&*,32<7<4,,,,34434",
"44tttttrrt&>82<:><<8335rrttt",
"#@@@@@#@@@.@@@@@@@@@@@@@#@@@",
"@##@@##@@@@@######@@@###.@@@",
"iiiyiiiiippiiippiiiippi0.qii",
"te4we4ettttttttw545ttttwO544",
"w3,<<,<444w44ww2>,3te441+3,,",
"22,<ete444544w5<,,,,<44<.ere",
"rrrr<*-1t;-,,tw5ruurttr5X*>r",
",,,3trr<<38<4,<<,,<ttt<,Xee,",
"<,,,,,31<3433<,,4ttrtrreoett",
"rrruut3e3;-6errruu>--;--Xetu",
",><tttr33382<>2e,,errru9X>,,",
">>>,>>>:>===>6>>>>>>,>>>O>>>",
"....o..o..........OO..O. ...",
"7777777777@:7777<777777<<777",
"jjhhhjhhjj$3hdppppppiighjjhh",
"tttttttttr&<rr44483339wttrtt",
"->t;;-----@<;---***>3-1e>***",
"w4435rtr44#>4etttw35rw<14843",
"w4345rte44#>4rttte413<w54333",
"--wt<*<ttt&<t;*-1t>>e<<*----",
"rtre332wtt&2ttttr434145trrrr",
",,,<3422,6#,tttrr444w4rur5,,",
"444<5uw244#2tt4,,,wrrt,,,<84",
"5,,34:43,,$*,,4rure,,,urtttt",
"3838>=>434$:3843434833334444"
};
