/* XPM */
static char *_653434e93e04ad2ed27d29580ee397a61JYLQnTxBlZJFxn[] = {
/* columns rows colors chars-per-pixel */
"28 48 212 2 ",
"   c None",
".  c #8B2CA2",
"X  c #8C3DA2",
"o  c #943CAC",
"O  c #982BB7",
"+  c #A832B9",
"@  c #A53DBD",
"#  c #9D51AC",
"$  c #954DB8",
"%  c #A44AB7",
"&  c #A64DBF",
"*  c #A544B9",
"=  c #A750BC",
"-  c #AF55BE",
";  c #A65BB9",
":  c #AD6CA6",
">  c #B679BC",
",  c #A42EC2",
"<  c #AB2FC7",
"1  c #AC2CC9",
"2  c #A626C3",
"3  c #A236C4",
"4  c #A838C0",
"5  c #A73FC8",
"6  c #A537C7",
"7  c #B03EC9",
"8  c #AC2DD3",
"9  c #BC25DC",
"0  c #B135D3",
"q  c #B63AD4",
"w  c #C13CDB",
"e  c #C033E7",
"r  c #A449C1",
"t  c #AC44C5",
"y  c #B04AC6",
"u  c #B544CD",
"i  c #B24CCC",
"p  c #B244C4",
"a  c #AE54CA",
"s  c #A858C8",
"d  c #AB5FC1",
"f  c #B454CC",
"g  c #BC50CE",
"h  c #B45DCC",
"j  c #B346D1",
"k  c #B74FD3",
"l  c #BA4BD5",
"z  c #BD4FDC",
"x  c #BD45D7",
"c  c #BD5BD5",
"v  c #B956D9",
"b  c #B66FC2",
"n  c #B461CD",
"m  c #BB65CC",
"M  c #BE68C9",
"N  c #B66CC8",
"B  c #B372C5",
"V  c #B87BC9",
"C  c #BD63D6",
"Z  c #BD75D7",
"A  c #B47FD0",
"S  c #B978D5",
"D  c #BF62E1",
"F  c #C557DE",
"G  c #C15ADD",
"H  c #C45CD3",
"J  c #C07CCB",
"K  c #C468D7",
"L  c #CF6DDD",
"P  c #C268D7",
"I  c #C476D4",
"U  c #C27DD3",
"Y  c #C373DB",
"T  c #C57BD9",
"R  c #CA7EDD",
"E  c #D17FDF",
"W  c #CB4DE9",
"Q  c #C55AE2",
"!  c #C759EA",
"~  c #CC5BEC",
"^  c #CA58E6",
"/  c #D854EE",
"(  c #D24BF7",
")  c #CE5AF4",
"_  c #D65FF6",
"`  c #CA64EA",
"'  c #CE6AE8",
"]  c #C867E4",
"[  c #D069E5",
"{  c #D26BEE",
"}  c #CE74E4",
"|  c #D273E4",
" . c #D678E8",
".. c #D76CF3",
"X. c #D86CF3",
"o. c #D767F6",
"O. c #D57CF0",
"+. c #E062F4",
"@. c #ED77FD",
"#. c #EE7AFF",
"$. c #E271F9",
"%. c #C48ACE",
"&. c #C29DCC",
"*. c #C686D6",
"=. c #C985D7",
"-. c #C48BD2",
";. c #CB8FD3",
":. c #CC85DD",
">. c #CC8BDB",
",. c #D08BDC",
"<. c #C991D5",
"1. c #C9A7D5",
"2. c #D7A2DF",
"3. c #D3AADE",
"4. c #D2A2D4",
"5. c #CBB7D4",
"6. c #D2BFD2",
"7. c #CA87E0",
"8. c #CF89E6",
"9. c #D18EE3",
"0. c #D68AEE",
"q. c #D98EED",
"w. c #D683E9",
"e. c #D294E4",
"r. c #DD93EC",
"t. c #D99CE3",
"y. c #DF8FF3",
"u. c #DF80FD",
"i. c #DA80F2",
"p. c #DA94F3",
"a. c #E185EF",
"s. c #E68AF9",
"d. c #F48CFA",
"f. c #E49BFA",
"g. c #EB9CFC",
"h. c #E392F9",
"j. c #F997FF",
"k. c #D7A9E1",
"l. c #DBAAE4",
"z. c #DCA4EC",
"x. c #DDAEEB",
"c. c #D6B2E3",
"v. c #DDB2E9",
"b. c #DEBAE3",
"n. c #E0A7E5",
"m. c #E0A7EE",
"M. c #E1BDE7",
"N. c #E2B4EB",
"B. c #E4BDEE",
"V. c #E5A2F3",
"C. c #E1A7F8",
"Z. c #ECA4FD",
"A. c #E6ACF3",
"S. c #F1A5FD",
"D. c #F3A9FC",
"F. c #E4B2F4",
"G. c #E7B8F3",
"H. c #ECBBF7",
"J. c #EFBEFF",
"K. c #ECB1FA",
"L. c #F2BAF8",
"P. c #E5D4DE",
"I. c #E8FFDD",
"U. c #DAC3E7",
"Y. c #DCC9E1",
"T. c #DBC4EA",
"R. c #DEC6F8",
"E. c #E2C4EC",
"W. c #E9C5EC",
"Q. c #E6CCE9",
"!. c #E4D4EC",
"~. c #E8D8EC",
"^. c #E1D6E1",
"/. c #E6C6F3",
"(. c #EDC3F5",
"). c #E4C9F7",
"_. c #ECCBF5",
"`. c #EDCCFA",
"'. c #EAC1F9",
"]. c #F2C2F9",
"[. c #F4CDFC",
"{. c #EDD3F5",
"}. c #EEDFF2",
"|. c #E9D0F8",
" X c #F2D6F7",
".X c #F3DDF3",
"XX c #FAD2FD",
"oX c #F5DCFE",
"OX c #F9DBFF",
"+X c #F4D5FB",
"@X c #EFE7EC",
"#X c #E6E8E7",
"$X c #F0E9E4",
"%X c #EEF2EE",
"&X c #EAF9E5",
"*X c #F1F3EF",
"=X c #F4F9EB",
"-X c #EEE4F5",
";X c #ECEAF1",
":X c #EDEAF9",
">X c #F2E0F3",
",X c #F4EDF3",
"<X c #F4E4F9",
"1X c #F8E7FD",
"2X c #F7EFFA",
"3X c #FDECFE",
"4X c #FAE6F3",
"5X c #ECF1F1",
"6X c #F2F2F2",
"7X c #F6F1F9",
"8X c #FFFEFF",
"9X c #F8F7F6",
/* pixels */
"                                                        ",
"                                                        ",
"                                                        ",
"                                                        ",
"                                                        ",
"                                                        ",
"                                                        ",
"                                                        ",
"                                                        ",
"                                                        ",
"                                                        ",
"                                                        ",
"                      > E.k.:                           ",
"                  e.*., ~ $ V.:.V                       ",
"              N.B n.@ F W Q Q 1 j C.                    ",
"            P.m S L p q ` ' X.g l ] I                   ",
"          9.K u j 6 { p.(.`.J.0.H * f h                 ",
"          >.s Y w ] V.XX$X=X<X[.d.r 0 y.C T.            ",
"          d % x ~ A.>X7X*X*X*X6X Xh.! z k 8.            ",
"          J v e v ).7X6X*X*X6X6X@X].C O [ E M.          ",
"        v.5 3 X.D.,X,X%X*X6X9X5X=X4Xa.~ ..M ;           ",
"        4.t 3 z Z.;X%X*X6X*X,X6X;X3Xf.) ! # b.          ",
"        b f ] G m.7X5X6X9X*X%X%X9XoX0.o.{ a :.          ",
"      !.L.m m ..$.(.,X6X;X6X&X9X@X).O.u [ 8.Y.          ",
"        {.%.- ..( r.>X,X5X<XI.:X>X+Xs.v } -.}.          ",
"          ;.= Z +.].(.$X-XoX.X/.].>Xa.| k z.            ",
"          k.W.t.K E.S.6X XXX=.e.S.#Xh O.1 e.            ",
"          3.    g Y.| T.W.v.u q. .;XT i., x.            ",
"                + F.c C.[.E.0 f.U <X>. .y {.            ",
"                m s.c v W.U.8 ;.*.oX*. .m 3X            ",
"              !.l 7.l . x.q.X ^ T k.<.' C               ",
"              1.* 9.F < l.r.o I ].,.3.i a               ",
"                ].z.h.9 F.Z.@ _._.| 1Xr f               ",
"                  N.H.2 V.j.7 {.|.#.  & h               ",
"                  K.G.B p.X.V `.`.#.  m U               ",
"                  Z.D.OX} ^   [.[.@.  Y L.              ",
"                  S.D.  | /   `./.i.  ;.!.              ",
"                  q.S.  } ,   B.z.%   3X                ",
"                  R 9.#Xf.n   c.N.N                     ",
"                  R T   Z.-.  U.E.A.                    ",
"                  T >.  V.        &.                    ",
"                  I U   e.        3.                    ",
"                  c.A   S         ~.                    ",
"                  6.'.  XX                              ",
"                  ^.,X  1.                              ",
"8X                      5.                              ",
"8X                    9X2X                              ",
"8X8X                  8X                                "
};
